# xmcd CD database file
#
# Track frame offsets:
#	187
#	18885
#	40507
#	59172
#
# Disc length: 1076 seconds
#
# Revision: 0
# Processed by: cddbd v1.5.1PL2 Copyright (c) Steve Scherf et al.
# Submitted via: CDex 1.51
#
DISCID=2a043204
DTITLE=Ｂｅ−２ - ＢＯＤＹ　ＨＵＮＴＥＲ〜サイクルボディキャンペーンイメージソング〜
DYEAR=1990
DGENRE=J-POP
TTITLE0=ＢＯＤＹ　ＨＵＮＴＥＲ
TTITLE1=夜明けの黄昏〜ＣＯＭＥ　ＢＡＣＫ　ＴＯ　ＭＥ〜
TTITLE2=ＢＯＤＹ　ＨＵＮＴＥＲ（オリジナル・カラオケ）
TTITLE3=夜明けの黄昏〜ＣＯＭＥ　ＢＡＣＫ　ＴＯ　ＭＥ〜（オリジナル・カラオケ）
EXTD=YEAR: 1990
EXTT0=
EXTT1=
EXTT2=
EXTT3=
PLAYORDER=
